<svg width="126" height="126" viewBox="0 0 126 126" fill="none" xmlns="http://www.w3.org/2000/svg">
<g clip-path="url(#clip0_3326_9)">
<path d="M124.972 114.563L115.542 66.0801C115.265 64.5887 113.954 63.5017 112.441 63.5017H107.323L106.869 60.7211C106.643 59.3561 105.584 58.2944 104.222 58.0922C103.97 58.0417 103.743 58.0164 103.491 57.9911C103.34 57.9658 103.163 57.9406 103.012 57.9406L101.802 57.7636L102.054 56.5755C102.71 53.5422 102.18 50.433 100.567 47.7788L100.264 47.2985L100.466 46.7677C101.272 44.6696 101.121 42.3187 100.062 40.347C99.0034 38.3753 97.1125 36.9598 94.9191 36.4795L94.1879 36.3278L94.0619 35.5695C92.5492 27.4805 85.4899 21.5654 77.2961 21.5149C77.2204 21.5149 77.1196 21.5149 77.0439 21.5402C76.9431 21.5402 76.8422 21.5654 76.7414 21.5654L76.0859 21.5907L75.7329 21.0346C74.4975 19.1135 72.5058 17.8496 70.2367 17.5462C67.9677 17.2682 65.7238 18.0012 64.0599 19.5685L63.4044 20.1751L62.648 19.6949C60.4294 18.254 57.8578 17.4957 55.2357 17.4957C50.975 17.5209 47.0167 19.4674 44.3947 22.8546L43.9157 23.4613L43.1845 23.2338C40.3608 22.4249 37.3858 22.9052 34.9907 24.5988C32.5956 26.2924 31.1081 28.9466 30.9316 31.8789L30.8812 32.5867L30.2257 32.8647C27.3515 34.0781 25.5111 36.8839 25.4858 39.9931C25.4858 40.524 25.5615 41.0548 25.6623 41.5857L25.7632 42.0659L25.4858 42.4704C22.763 46.5907 22.057 51.6716 23.5445 56.3733L23.9479 57.6625L22.6117 57.8394C22.3848 57.8647 22.1327 57.89 21.9058 57.9406C21.578 57.9911 21.225 58.0417 20.8973 58.067C19.5359 58.2692 18.4518 59.3309 18.2248 60.6959L17.771 63.4765H12.7035C11.1908 63.4765 9.87975 64.5634 9.60242 66.0548L0.173212 114.563C-0.129329 116.131 0.27406 117.748 1.28253 118.987C2.291 120.226 3.80371 120.933 5.39205 120.933H50.8993L51.2271 121.49C52.5885 123.739 57.1518 125.256 62.5472 125.256C67.9173 125.256 72.4302 123.739 73.8168 121.49L74.1446 120.959H119.702C121.291 120.959 122.778 120.251 123.812 119.012C124.871 117.748 125.274 116.131 124.972 114.563ZM26.0153 45.8576L26.6708 44.2904L27.8557 45.5038C28.2591 45.9335 28.7382 46.2874 29.2424 46.616C29.7214 46.894 30.3265 46.7424 30.629 46.2621C30.9064 45.8071 30.7803 45.251 30.3769 44.9224L30.3013 44.8718C28.1331 43.5573 27.0742 40.9284 27.7549 38.4765C28.4356 36.0245 30.6795 34.3056 33.2006 34.3056H33.2259C34.9907 34.3056 36.6799 35.165 37.7388 36.6059C37.9405 36.8839 38.3186 37.0356 38.6716 37.0103C39.0246 36.9598 39.3523 36.7323 39.4784 36.4037C39.6297 36.075 39.5792 35.6959 39.3523 35.3925C38.0917 33.6989 36.1504 32.6119 34.0578 32.3844L32.7973 32.2581L33.0494 31.0194C33.8057 27.5058 36.9572 24.9274 40.5373 24.9274H40.5625H40.5877C40.8902 24.9527 41.1928 24.978 41.4953 25.0285L42.882 25.256L42.3777 26.5705C42.2265 26.9749 42.0752 27.3794 41.9743 27.7838C41.8483 28.3147 42.176 28.8455 42.7055 28.9972C43.2349 29.1236 43.7896 28.8202 43.9409 28.2894C44.2182 27.253 44.6216 26.2672 45.1762 25.3066C47.2688 21.7677 51.1262 19.5685 55.2105 19.5432C57.4796 19.5432 59.6478 20.2257 61.5387 21.4643L62.295 21.9446L61.9925 22.7788C61.7152 23.5624 61.5639 24.3966 61.5639 25.2308C61.5639 25.7869 62.0177 26.2419 62.5724 26.2419C63.127 26.2419 63.5808 25.7869 63.5808 25.2308C63.5808 22.0963 66.1272 19.5432 69.2283 19.5432C72.3545 19.5432 74.9009 22.0963 74.9009 25.2308C74.9009 25.7869 75.3547 26.2419 75.9094 26.2419C76.4641 26.2419 76.9179 25.7869 76.9179 25.2308C76.9179 25.2055 76.9179 25.1549 76.8927 25.1296C76.8675 25.0285 76.8675 24.9274 76.8675 24.801L76.7918 23.5371L78.0524 23.613C84.6579 24.0174 90.3305 28.8202 91.818 35.2914L92.0702 36.3531L91.0365 36.6564C90.1541 36.9092 89.3473 37.3137 88.6161 37.8698C88.3388 38.0973 88.1623 38.4512 88.2128 38.8051C88.2632 39.159 88.4901 39.4876 88.8178 39.614C89.1456 39.7656 89.549 39.7151 89.8263 39.4876C91.9693 37.8951 94.9695 38.0215 96.9612 39.7909C98.953 41.5604 99.4572 44.5179 98.1462 46.8435C97.5663 47.8799 96.6839 48.6888 95.5998 49.1944C95.1964 49.3966 94.9695 49.8769 95.0704 50.3319C95.1712 50.7869 95.5746 51.1155 96.0536 51.1408C96.1797 51.1408 96.3309 51.1155 96.4822 51.0396C96.9612 50.8121 97.4403 50.5088 97.8689 50.1549L99.1042 49.1691L99.6337 50.6605C100.894 54.2247 100.113 58.1933 97.5915 60.9992L97.5159 61.075C94.4148 64.4623 89.3473 65.3723 85.2126 63.3248L85.1873 63.2995C84.784 63.072 84.3806 62.8445 84.0024 62.5664L83.0948 61.9092L83.7503 60.9992C85.0865 59.1033 85.2882 56.6514 84.2293 54.5786C84.078 54.25 83.7503 54.0477 83.3721 54.0225C83.0191 53.9972 82.6662 54.1741 82.4645 54.4775C82.2628 54.7808 82.2376 55.1853 82.414 55.4886C83.3721 57.4097 82.767 59.7859 81.0022 60.9992C79.9433 61.707 78.6827 61.9092 77.4725 61.6059C76.2624 61.3025 75.2539 60.4936 74.674 59.3814C74.4975 59.0275 74.1698 58.8253 73.8168 58.8C73.4639 58.7747 73.1109 58.9517 72.9092 59.255C72.7075 59.5584 72.6823 59.9375 72.8588 60.2661C73.9429 62.4401 76.1111 63.8051 78.5314 63.8051H78.5566C79.3382 63.8051 80.0946 63.6534 80.8257 63.3501L81.4812 63.0973L82.0107 63.5523C82.7166 64.159 83.4729 64.6898 84.3049 65.1195C87.1286 66.5857 90.3558 66.889 93.3812 65.9537L96.6335 64.9679L94.6165 67.7232C92.2971 70.8829 88.8935 72.981 85.0361 73.613C84.5318 73.6888 84.1537 74.1691 84.1789 74.6999C84.2293 75.2308 84.6579 75.6352 85.1873 75.6352C85.2378 75.6352 85.2882 75.6352 85.3638 75.6352C86.574 75.433 87.7589 75.0791 88.9187 74.5988L89.8515 74.1944L90.3558 75.0791C91.0617 76.3177 91.6163 77.6322 92.0449 78.9972C92.1458 79.3258 92.1962 79.6797 92.2214 80.0336C92.2214 81.4239 91.3894 82.6878 90.1289 83.2186L90.1036 83.2439C89.675 83.3956 89.2464 83.4967 88.8178 83.4967C87.7589 83.4967 86.7505 83.0164 86.0445 82.1822C84.5066 80.3875 82.5149 79.0477 80.271 78.34C75.7581 76.8233 73.4134 75.3066 72.405 73.2843L71.6738 71.8435L73.2622 71.6413C74.3211 71.5149 75.3548 71.2874 76.3884 70.984C76.7162 70.8829 76.9935 70.6049 77.0691 70.251C77.1448 69.8971 77.0439 69.5179 76.7666 69.2651C76.4893 69.0124 76.1111 68.9365 75.7833 69.0376C74.4975 69.4421 73.1613 69.6696 71.7999 69.7707C69.2283 69.9729 66.581 69.5685 64.1859 68.6079C63.7825 68.4562 63.3287 68.5573 63.0514 68.886C59.4965 72.981 53.5466 73.6635 49.1597 70.4785C44.7981 67.2934 43.5879 61.4037 46.3612 56.7525C46.5629 56.4492 46.5629 56.0447 46.3864 55.7161C46.2099 55.3875 45.8822 55.1852 45.504 55.1852C45.151 55.1852 44.7981 55.3622 44.6216 55.6908C44.1678 56.4744 43.7896 57.3339 43.4871 58.2186L43.2349 59.0528L42.3525 59.0022C40.0835 58.8758 38.2682 57.0053 38.2178 54.705V54.6291C38.2178 54.3764 38.1169 54.0983 37.9153 53.9213C37.7388 53.7444 37.4614 53.6433 37.2093 53.6433C36.6294 53.6433 36.1756 54.1236 36.1756 54.6797C36.1756 57.9406 38.6212 60.6453 41.8483 60.9992L42.8568 61.1003V62.1114C42.8568 62.7687 42.9324 63.4259 43.0332 64.0831L43.2097 65.1448L42.1508 65.3723C36.9068 66.5098 31.5367 64.6392 28.1079 60.4936C24.7043 56.4492 23.8975 50.7869 26.0153 45.8576ZM50.8741 118.861H5.39205C4.40879 118.861 3.47596 118.431 2.84566 117.647C2.21537 116.889 1.96325 115.903 2.16494 114.943L11.7706 65.524H17.4685L10.51 107.536C10.3336 108.623 10.7369 109.71 11.5689 110.443C12.4009 111.176 13.5355 111.404 14.5944 111.075C26.1918 107.309 38.6716 106.525 50.6724 108.775L51.6809 108.977L50.8741 118.861ZM72.1276 120.428C71.2704 121.768 67.4635 123.183 62.5724 123.183C57.6813 123.183 53.8743 121.793 53.0171 120.428L52.8154 120.099L53.6978 109.432L54.9836 109.761C57.404 110.367 59.7739 111.176 62.0681 112.137L62.1186 112.162C62.2446 112.238 62.4211 112.263 62.5724 112.263C62.7236 112.263 62.8749 112.238 63.001 112.162L63.0514 112.137C65.3457 111.151 67.7408 110.342 70.1359 109.735L71.4217 109.407L72.3041 120.099L72.1276 120.428ZM65.0683 109.129L63.5808 109.634V81.1205C63.5808 80.5897 63.2027 80.1094 62.6732 80.0589C62.0681 80.0083 61.5387 80.4633 61.5387 81.07V109.659L60.0512 109.154C45.2015 104.174 28.839 104.174 13.9893 109.129C13.8632 109.179 13.7372 109.179 13.6363 109.179C12.9556 109.179 12.4009 108.573 12.527 107.865L20.4183 60.1903L21.225 60.0639C22.0318 59.9375 22.889 59.8364 23.6958 59.7353L25.0068 59.5584L25.385 60.1903C29.1163 66.1559 36.2008 69.0376 43.008 67.3693L43.8652 67.167L44.2686 67.9507C46.0587 71.3379 49.3614 73.7393 53.118 74.3966C56.8745 75.0285 60.8075 73.8657 63.6061 71.2368L64.0851 70.7818L64.7154 70.9588C66.102 71.3632 67.5139 71.616 68.951 71.7171L69.7577 71.7677L69.9594 72.5513C70.8923 76.0649 73.5647 78.2136 79.5651 80.2358C81.456 80.8172 83.1452 81.9547 84.431 83.4714C85.5151 84.7606 87.1034 85.5189 88.7674 85.5189C89.4986 85.5189 90.2045 85.3673 90.86 85.0892C92.8769 84.2297 94.1879 82.2328 94.1879 80.0336C94.1879 79.4522 94.0871 78.8961 93.9106 78.34C93.4568 76.8738 92.8265 75.4835 92.0954 74.1438L91.5911 73.2591L92.4231 72.6524C95.8519 70.1751 98.247 66.5351 99.1295 62.3895L99.1799 62.1114L99.3564 61.8839C99.785 61.3784 100.163 60.8475 100.491 60.2914L100.869 59.6595L102.079 59.8111C102.634 59.887 103.239 59.9628 103.819 60.0639L104.626 60.1903L112.517 107.839C112.643 108.674 111.836 109.381 111.029 109.103C103.592 106.626 95.8015 105.362 88.0111 105.362C80.2962 105.413 72.5058 106.651 65.0683 109.129ZM122.274 117.673C121.644 118.431 120.711 118.886 119.727 118.886H74.2706L73.4639 108.977L74.4723 108.775C86.4731 106.5 98.9782 107.309 110.576 111.1C111.609 111.429 112.744 111.176 113.601 110.443C114.433 109.71 114.836 108.623 114.66 107.536L107.701 65.5493H113.425L123.03 114.968C123.156 115.928 122.904 116.914 122.274 117.673Z" fill="black"/>
<path d="M72.3293 120.099L72.1276 120.428C71.2704 121.768 67.4635 123.183 62.5724 123.183C57.6813 123.183 53.8743 121.793 53.0171 120.428L52.8154 120.099L53.6978 109.432L54.9836 109.761C57.404 110.367 59.7739 111.176 62.0681 112.137L62.1186 112.162C62.2446 112.238 62.4211 112.263 62.5724 112.263C62.7236 112.263 62.8749 112.238 63.001 112.162L63.0514 112.137C65.3457 111.151 67.7408 110.342 70.1359 109.735L71.4217 109.407L72.3293 120.099Z" fill="black"/>
<path d="M76.464 44.5937C75.5312 49.4471 71.6233 53.2388 66.7827 54.0477L66.1272 54.1488L65.9003 54.7555C64.5136 58.4714 60.9335 60.9486 56.9753 60.9486H56.9501C56.3954 60.9486 55.9416 60.4936 55.9416 59.9375C55.9416 59.3814 56.3954 58.9264 56.9501 58.9264C59.3956 58.9264 61.6899 57.7383 63.1017 55.7413L64.1102 54.3258L62.421 53.9719C59.9755 53.441 57.8073 52.2024 56.1181 50.3318C55.9416 50.1296 55.866 49.9021 55.866 49.6493C55.866 49.3713 55.992 49.0932 56.1937 48.891C56.6223 48.5118 57.2526 48.5371 57.6308 48.9668C60.984 52.5563 66.3541 53.163 70.4384 50.4329C72.5562 48.9668 73.9932 46.7676 74.4723 44.2145C74.5227 43.8606 74.7748 43.5573 75.1278 43.4309C75.4807 43.3045 75.8589 43.3804 76.1362 43.6331C76.4388 43.8354 76.5648 44.2145 76.464 44.5937Z" fill="black"/>
<path d="M56.6981 35.7717C56.6981 36.3278 56.2443 36.7828 55.6896 36.7828C53.8996 36.7828 52.2104 37.4906 50.9246 38.7545C49.6388 40.0184 48.9581 41.7373 48.9581 43.532C48.9581 44.0881 48.5043 44.5431 47.9496 44.5431C47.6723 44.5431 47.4202 44.442 47.2437 44.2398C47.042 44.0376 46.9412 43.7848 46.9412 43.532C46.9412 38.6786 50.8742 34.7605 55.7149 34.7353C56.2443 34.7353 56.6981 35.1903 56.6981 35.7717Z" fill="black"/>
<path d="M63.5809 1.24184V3.39047C63.5809 3.94659 63.1271 4.40159 62.5724 4.40159C62.0178 4.40159 61.564 3.94659 61.564 3.39047V1.24184C61.564 0.685718 62.0178 0.230713 62.5724 0.230713C63.1271 0.230713 63.5809 0.685718 63.5809 1.24184Z" fill="black"/>
<path d="M100.113 16.8131L97.9445 18.987C97.6924 19.2398 97.3142 19.3662 96.9613 19.2651C96.6083 19.164 96.331 18.8859 96.2301 18.532C96.1293 18.1781 96.2301 17.799 96.5074 17.5209L98.6505 15.3723H98.6757C98.8774 15.1701 99.1295 15.0689 99.4068 15.0689C99.4824 15.0689 99.5833 15.0689 99.6589 15.0942C100.012 15.1953 100.289 15.4734 100.39 15.8273C100.491 16.1559 100.39 16.5351 100.113 16.8131Z" fill="black"/>
<path d="M28.8388 18.6332C28.6876 19.0123 28.3094 19.2651 27.906 19.2651C27.6287 19.2651 27.3766 19.164 27.2001 18.9618L25.0319 16.7879C24.7545 16.5351 24.6537 16.1559 24.7545 15.802C24.8554 15.4481 25.1327 15.1701 25.4857 15.0689C25.5613 15.0437 25.6622 15.0437 25.7378 15.0437C26.0151 15.0437 26.2672 15.1448 26.4941 15.3723L28.6371 17.5209C28.9145 17.8243 28.9901 18.254 28.8388 18.6332Z" fill="black"/>
<path d="M45.4029 9.55828C45.3021 9.81106 45.1004 10.0133 44.8483 10.1144C44.7222 10.165 44.5962 10.1902 44.4449 10.1902C44.0415 10.1902 43.6633 9.93746 43.5121 9.55828L41.0413 3.54211C40.89 3.21349 40.9405 2.80904 41.1674 2.50571C41.3691 2.25293 41.6716 2.10126 41.9741 2.10126C42.0246 2.10126 42.075 2.10126 42.1254 2.10126C42.4784 2.15181 42.8061 2.40459 42.9322 2.75849L45.4029 8.74939C45.5038 9.02744 45.5038 9.3055 45.4029 9.55828Z" fill="black"/>
<path d="M84.1032 3.59272L81.6325 9.58362C81.5568 9.78584 81.4308 9.93751 81.2543 10.0386C81.103 10.1397 80.9013 10.2156 80.6996 10.2156C80.5736 10.2156 80.4223 10.1903 80.3215 10.1397C80.0693 10.0386 79.8676 9.8364 79.7668 9.58362C79.666 9.33084 79.666 9.05278 79.7668 8.8L82.2375 2.83437C82.3888 2.42993 82.7922 2.20242 83.1704 2.20242C83.2964 2.20242 83.4225 2.2277 83.5486 2.27826C83.8007 2.37937 84.0024 2.58159 84.1032 2.83437C84.2041 3.06188 84.2041 3.33994 84.1032 3.59272Z" fill="black"/>
<path d="M113.273 32.5108C113.223 32.8647 112.996 33.1933 112.643 33.3197L106.668 35.7969C106.542 35.8475 106.416 35.8728 106.29 35.8728C105.811 35.8728 105.382 35.5189 105.281 35.0639C105.18 34.5836 105.432 34.1033 105.886 33.9263L111.861 31.4491C111.987 31.3985 112.113 31.3733 112.24 31.3733C112.466 31.3733 112.668 31.4491 112.87 31.5755C113.172 31.803 113.324 32.1569 113.273 32.5108Z" fill="black"/>
<path d="M19.7879 35.2408C19.5862 35.7717 18.9811 35.9992 18.4517 35.797L12.4765 33.3197C12.2244 33.2186 12.0227 33.0164 11.9218 32.7636C11.821 32.5108 11.821 32.2328 11.9218 31.98C12.0227 31.7272 12.2244 31.525 12.4765 31.4239C12.6025 31.3733 12.7286 31.348 12.8547 31.348C12.9807 31.348 13.132 31.3733 13.2328 31.4239L19.208 33.9011C19.4602 34.0022 19.6618 34.2044 19.7627 34.4572C19.8888 34.71 19.8888 34.9881 19.7879 35.2408Z" fill="black"/>
</g>
<defs>
<clipPath id="clip0_3326_9">
<rect width="125" height="125" fill="white" transform="translate(0.0722656 0.230713)"/>
</clipPath>
</defs>
</svg>
